<?xml version="1.0" encoding="UTF-8"?>
<!DOCTYPE svg PUBLIC "-//W3C//DTD SVG 1.1//EN" "http://www.w3.org/Graphics/SVG/1.1/DTD/svg11.dtd">
<!-- Creator: CorelDRAW -->
<svg xmlns="http://www.w3.org/2000/svg" xml:space="preserve" width="282.564mm" height="146.929mm" version="1.1" style="shape-rendering:geometricPrecision; text-rendering:geometricPrecision; image-rendering:optimizeQuality; fill-rule:evenodd; clip-rule:evenodd"
viewBox="0 0 28256.4 14692.9"
 xmlns:xlink="http://www.w3.org/1999/xlink"
 xmlns:xodm="http://www.corel.com/coreldraw/odm/2003">
 <defs>
  <style type="text/css">
   <![CDATA[
    .str0 {stroke:white;stroke-width:75;stroke-miterlimit:22.9256}
    .fil0 {fill:#EB5202}
    .fil4 {fill:#FFE2D4}
    .fil5 {fill:white}
    .fil3 {fill:#FFE2D4;fill-rule:nonzero}
    .fil2 {fill:white;fill-rule:nonzero}
    .fil1 {fill:white;fill-rule:nonzero}
   ]]>
  </style>
 </defs>
 <g id="Camada_x0020_1">
  <metadata id="CorelCorpID_0Corel-Layer"/>
  <polygon class="fil0" points="-2.68,14694.13 28253.73,14694.13 28253.73,1.27 -2.68,1.27 "/>
  <g id="_2805986864768">
   <path class="fil1 str0" d="M9301.91 7972.49c-305.89,46.6 -541.31,167.43 -708.71,362.54 -167.43,196.4 -250.52,440.62 -250.52,736.43l0 1769.92 -667.2 0 0 -3371.16 667.2 0 0 479.64c98.2,-263.1 309.67,-445.64 634.45,-548.87l324.78 571.5zm4806.72 2868.89l-667.16 0 0 -590.38c-263.1,453.17 -664.67,678.5 -1203.45,678.5 -532.48,0 -984.39,-185.04 -1354.5,-555.14 -370.1,-370.1 -555.17,-806.91 -555.17,-1310.45 0,-508.57 185.07,-947.9 555.17,-1316.72 370.11,-368.86 822.02,-552.65 1354.5,-552.65 538.78,0 940.35,222.81 1203.45,670.94l0 -395.26 667.16 0 0 3371.16zm-667.16 -1511.87l0 -538.75c-47.85,-242.97 -158.63,-453.2 -336.11,-630.68 -248,-250.52 -537.54,-376.41 -867.34,-376.41 -331.09,0 -619.35,123.36 -862.32,368.86 -244.18,246.71 -365.04,550.08 -365.04,911.38 0,358.77 120.86,659.64 365.04,903.83 242.97,242.97 531.23,365.07 862.32,365.07 329.8,0 619.34,-124.63 867.34,-372.63 177.48,-177.48 288.26,-387.7 336.11,-630.67zm2588.66 -1003.28l0 2515.15 -667.16 0 0 -3371.16 667.16 0c113.31,-122.1 347.44,-183.78 701.16,-183.78 425.51,0 767.89,129.66 1028.49,390.23 260.58,260.58 394.02,579.08 399.04,955.46l0 2209.25 -664.67 0 0 -2179.04c0,-229.11 -76.78,-419.2 -231.64,-570.24 -154.81,-151.08 -332.3,-226.62 -531.22,-226.62 -196.37,0 -370.07,70.52 -519.9,214.01 -85.59,85.62 -146.02,167.43 -181.26,246.74zm6356.36 453.2c-49.1,-237.95 -164.93,-449.42 -346.19,-634.45 -239.19,-240.45 -522.43,-361.31 -852.23,-361.31 -332.34,0 -619.35,123.36 -863.56,368.86 -242.94,246.71 -365.05,550.08 -365.05,911.38 0,358.77 122.11,660.89 365.05,905.11 244.21,244.22 531.22,367.57 863.56,367.57 329.8,0 618.1,-124.64 866.09,-372.63 172.46,-172.46 283.23,-376.38 332.33,-613.04l0 -571.49zm-44.07 1490.43c-231.64,439.33 -615.57,659.64 -1154.35,659.64 -533.76,0 -985.67,-185.04 -1355.78,-555.14 -370.1,-370.1 -555.13,-806.91 -555.13,-1310.45 0,-508.57 185.03,-947.9 555.13,-1315.48 370.11,-367.57 822.02,-551.36 1355.78,-551.36 536.25,0 936.57,222.81 1202.17,668.41l0 -395.26 667.19 0 0 2537.81c0,493.46 -177.48,917.69 -535,1272.69 -372.6,375.12 -828.32,563.94 -1363.33,563.94 -536.25,0 -988.17,-183.79 -1354.49,-550.08 -83.09,-85.62 -188.81,-214.01 -317.23,-382.72l638.23 -232.85c86.87,108.25 146.02,177.48 181.26,206.45 237.94,241.69 522.43,361.26 852.23,361.26 694.88,0 1090.18,-326.02 1183.32,-976.86zm2534.57 -1800.1l2209.22 0c-157.35,-456.98 -523.67,-686.09 -1098.94,-686.09 -577.8,0 -947.91,229.11 -1110.28,686.09zm-118.33 582.82l0 11.33c0,358.77 122.11,659.64 365.04,903.83 244.22,242.97 531.23,365.07 863.57,365.07 329.8,0 618.09,-124.63 866.09,-372.63 35.24,-35.24 101.94,-112.02 200.14,-232.85l626.9 221.56c-94.42,157.34 -201.42,295.81 -324.78,416.67 -373.88,376.37 -829.57,563.94 -1368.35,563.94 -533.76,0 -985.67,-185.04 -1355.78,-555.14 -370.1,-370.1 -555.13,-806.91 -555.13,-1310.45 0,-508.57 185.03,-947.9 555.13,-1316.72 370.11,-368.86 822.02,-552.65 1355.78,-552.65 538.78,0 994.47,186.32 1368.35,560.17 322.25,324.78 483.38,756.56 483.38,1297.87l-3080.34 0z"/>
   <path class="fil2" d="M12503.54 4038.5l0 -767.74 164.77 0 0 767.74 367.89 0 0 166.19 -367.89 0 0 1639.87 -164.77 0 0 -1639.87 -367.88 0 0 -166.19 367.88 0zm1111.77 -1136.33l166.9 0 0 1230.07c138.49,-134.93 306.08,-201.69 503.52,-201.69 212.35,0 384.94,66.76 519.16,200.27 133.51,134.23 202.4,302.55 206.67,504.97l0 1208.77 -166.19 0 0 -1192.44c0,-154.11 -55.4,-284.8 -166.9,-392.74 -110.79,-108.67 -241.46,-162.64 -392.74,-162.64 -152.68,0 -284.08,53.25 -393.44,160.51 -49.72,48.29 -86.64,98.72 -110.08,151.26l0 1436.05 -166.9 0 0 -2942.39zm2229.6 1722.96l1585.89 0c-39.07,-126.42 -105.12,-235.79 -198.15,-328.83 -163.35,-163.35 -360.79,-245.01 -590.89,-245.01 -230.1,0 -426.82,81.66 -590.88,245.01 -96.59,98.72 -165.47,208.09 -205.97,328.83zm-31.23 169.03c-4.27,29.12 -6.4,59.65 -6.4,93.04 0,230.81 81.66,426.84 245.01,588.76 162.65,162.64 359.37,243.6 589.47,243.6 230.1,0 427.54,-81.67 590.89,-245.73 27.7,-27.7 53.98,-56.82 79.55,-87.35l176.83 62.49c-21.31,34.8 -64.63,84.51 -131.38,149.85 -196.73,198.86 -435.36,297.59 -715.89,297.59 -276.98,0 -514.9,-98.73 -712.32,-296.17 -197.45,-198.14 -296.88,-435.35 -296.88,-713.04 0,-279.82 99.43,-518.46 296.88,-715.9 197.42,-196.72 435.34,-295.44 712.32,-295.44 280.53,0 519.16,98.72 715.89,296.15 173.28,174.72 259.93,382.1 259.93,622.15l-1803.9 0zm3965.61 -1891.99l0 2942.39 -166.9 0 0 -2942.39 166.9 0zm957.63 1136.33l0 1806.06 -164.05 0 0 -1806.06 164.05 0zm-80.95 -638.49c44.03,0 83.09,15.64 115.05,47.59 32.68,31.96 49.01,70.31 49.01,114.34 0,47.58 -16.33,86.66 -49.01,118.61 -31.96,31.96 -71.02,48.29 -115.05,48.29 -46.16,0 -85.22,-16.33 -117.89,-48.29 -32.68,-31.95 -49.01,-71.03 -49.01,-118.61 0,-44.03 16.33,-82.38 49.01,-114.34 32.67,-31.95 71.73,-47.59 117.89,-47.59zm1080.5 638.49l0 -767.74 164.77 0 0 767.74 367.89 0 0 166.19 -367.89 0 0 1639.87 -164.77 0 0 -1639.87 -367.88 0 0 -166.19 367.88 0zm1351.09 0l0 -767.74 164.77 0 0 767.74 367.9 0 0 166.19 -367.9 0 0 1639.87 -164.77 0 0 -1639.87 -367.87 0 0 -166.19 367.87 0zm1312.04 -1136.33l0 2942.39 -166.9 0 0 -2942.39 166.9 0zm866.02 1722.96l1585.89 0c-39.07,-126.42 -105.12,-235.79 -198.16,-328.83 -163.34,-163.35 -360.78,-245.01 -590.89,-245.01 -230.1,0 -426.81,81.66 -590.87,245.01 -96.59,98.72 -165.48,208.09 -205.97,328.83zm-31.24 169.03c-4.26,29.12 -6.39,59.65 -6.39,93.04 0,230.81 81.66,426.84 245.01,588.76 162.65,162.64 359.36,243.6 589.46,243.6 230.11,0 427.55,-81.67 590.89,-245.73 27.7,-27.7 53.98,-56.82 79.55,-87.35l176.84 62.49c-21.31,34.8 -64.63,84.51 -131.39,149.85 -196.73,198.86 -435.36,297.59 -715.89,297.59 -276.97,0 -514.89,-98.73 -712.32,-296.17 -197.44,-198.14 -296.87,-435.35 -296.87,-713.04 0,-279.82 99.43,-518.46 296.87,-715.9 197.43,-196.72 435.35,-295.44 712.32,-295.44 280.53,0 519.16,98.72 715.89,296.15 173.28,174.72 259.94,382.1 259.94,622.15l-1803.91 0z"/>
   <g>
    <path class="fil2" d="M5191.43 8316.46c-84.31,878.56 -824.32,1565.63 -1724.98,1565.63 -900.65,0 -1640.67,-687.07 -1724.98,-1565.63l-1329.4 0c87.03,1611.56 1421.11,2891.58 3054.38,2891.58 1633.27,0 2967.3,-1280.02 3054.33,-2891.58l-1329.35 0z"/>
    <path class="fil3" d="M5191.43 8316.46c-84.31,878.56 -824.32,1565.63 -1724.98,1565.63 -900.65,0 -1640.67,-687.07 -1724.98,-1565.63l-1.73 0c86.1,1245.11 1122.72,2228.62 2389.67,2228.62 1266.98,-0.03 2303.54,-983.51 2389.66,-2228.62l-1327.64 0z"/>
    <path class="fil2" d="M1741.47 7981.24c84.33,-878.52 824.33,-1565.58 1724.94,-1565.58 900.68,0 1640.67,687.06 1725.02,1565.58l1329.35 0c-87.05,-1611.55 -1421.08,-2891.54 -3054.37,-2891.54 -1633.23,0 -2967.29,1279.99 -3054.34,2891.54l1329.4 0z"/>
    <path class="fil3" d="M1741.47 7981.24c84.33,-878.52 824.33,-1565.58 1724.94,-1565.58 900.68,0 1640.67,687.06 1725.02,1565.58l1.73 0c-86.14,-1245.09 -1122.72,-2228.55 -2389.67,-2228.55 -1266.95,0 -2303.55,983.46 -2389.69,2228.55l1327.67 0z"/>
    <path class="fil4" d="M4601.03 2867.69c-283.09,786.06 -609.46,1532.36 -1097.55,1895.47 819.35,-136.34 1229.6,-717.66 1097.55,-1895.47z"/>
    <path class="fil4" d="M2536.8 3508.05c186.61,518.15 401.74,1010.09 723.48,1249.44 -540.1,-89.87 -810.52,-473.06 -723.48,-1249.44z"/>
    <path class="fil5" d="M4570.73 2850.76c-843.4,438.45 -1065.3,1130.07 -1096.73,1899.31 375.12,-303.05 722.68,-911.39 1096.73,-1899.31z"/>
    <path class="fil5" d="M2556.77 3496.89c555.95,289.01 702.22,744.91 722.94,1251.97 -247.27,-199.76 -476.37,-600.76 -722.94,-1251.97z"/>
   </g>
  </g>
 </g>
</svg>
